<svg width="561" height="121" viewBox="0 0 561 121" fill="none" xmlns="http://www.w3.org/2000/svg">
<path d="M17.6816 120.182C15.2271 120.182 12.9241 119.985 10.7726 119.591C8.65134 119.227 6.89376 118.758 5.49982 118.182L9.86346 103.727C12.1362 104.424 14.1816 104.803 15.9998 104.864C17.8483 104.924 19.4392 104.5 20.7726 103.591C22.1362 102.682 23.2422 101.136 24.0907 98.9546L25.2271 96.0001L0.181641 24.1819H20.5453L34.9998 75.4546H35.7271L50.318 24.1819H70.818L43.6816 101.546C42.3786 105.303 40.6059 108.576 38.3635 111.364C36.1513 114.182 33.3483 116.349 29.9544 117.864C26.5604 119.409 22.4695 120.182 17.6816 120.182Z" fill="black"/>
<path d="M98.7612 95.3183C94.3066 95.3183 90.3369 94.5455 86.8521 93.0001C83.3672 91.4243 80.6097 89.1062 78.5794 86.0455C76.5794 82.9546 75.5794 79.1062 75.5794 74.5001C75.5794 70.6213 76.2915 67.3637 77.7157 64.7274C79.14 62.091 81.0794 59.9698 83.5339 58.3637C85.9885 56.7577 88.7763 55.5455 91.8976 54.7274C95.0491 53.9092 98.3521 53.3334 101.807 53.0001C105.867 52.5758 109.14 52.1819 111.625 51.8183C114.11 51.4243 115.913 50.8486 117.034 50.091C118.155 49.3334 118.716 48.2122 118.716 46.7274V46.4546C118.716 43.5758 117.807 41.3486 115.988 39.7728C114.201 38.1971 111.655 37.4092 108.352 37.4092C104.867 37.4092 102.095 38.1819 100.034 39.7274C97.9733 41.2425 96.6097 43.1516 95.943 45.4546L78.0339 44.0001C78.943 39.7577 80.7309 36.091 83.3976 33.0001C86.0642 29.8789 89.5036 27.4849 93.7157 25.8183C97.9582 24.1213 102.867 23.2728 108.443 23.2728C112.322 23.2728 116.034 23.7274 119.579 24.6365C123.155 25.5455 126.322 26.9546 129.079 28.8637C131.867 30.7728 134.064 33.2274 135.67 36.2274C137.276 39.1971 138.079 42.7577 138.079 46.9092V94.0001H119.716V84.3183H119.17C118.049 86.5001 116.549 88.4243 114.67 90.091C112.791 91.7274 110.534 93.0152 107.898 93.9546C105.261 94.8637 102.216 95.3183 98.7612 95.3183ZM104.307 81.9546C107.155 81.9546 109.67 81.394 111.852 80.2728C114.034 79.1213 115.746 77.5759 116.988 75.6365C118.231 73.6971 118.852 71.5001 118.852 69.0455V61.6365C118.246 62.0304 117.413 62.394 116.352 62.7274C115.322 63.0304 114.155 63.3183 112.852 63.591C111.549 63.8334 110.246 64.0607 108.943 64.2728C107.64 64.4546 106.458 64.6213 105.398 64.7728C103.125 65.1062 101.14 65.6365 99.443 66.3637C97.746 67.091 96.4279 68.0759 95.4885 69.3183C94.5491 70.5304 94.0794 72.0455 94.0794 73.8637C94.0794 76.5001 95.0339 78.5152 96.943 79.9092C98.8824 81.2728 101.337 81.9546 104.307 81.9546Z" fill="black"/>
<path d="M190.238 24.1819V38.7274H148.193V24.1819H190.238ZM157.738 7.45464H177.102V72.5455C177.102 74.3334 177.375 75.7274 177.92 76.7274C178.466 77.6971 179.223 78.3789 180.193 78.7728C181.193 79.1668 182.345 79.3637 183.648 79.3637C184.557 79.3637 185.466 79.288 186.375 79.1365C187.284 78.9546 187.981 78.8183 188.466 78.7274L191.511 93.1365C190.541 93.4395 189.178 93.788 187.42 94.1819C185.663 94.6062 183.526 94.8637 181.011 94.9546C176.345 95.1365 172.254 94.5152 168.738 93.091C165.254 91.6668 162.541 89.4546 160.602 86.4546C158.663 83.4546 157.708 79.6668 157.738 75.091V7.45464Z" fill="black"/>
<path d="M233.648 95.3637C226.587 95.3637 220.481 93.8637 215.329 90.8637C210.208 87.8334 206.254 83.6213 203.466 78.2274C200.678 72.8031 199.284 66.5152 199.284 59.3637C199.284 52.1516 200.678 45.8486 203.466 40.4546C206.254 35.0304 210.208 30.8183 215.329 27.8183C220.481 24.788 226.587 23.2728 233.648 23.2728C240.708 23.2728 246.799 24.788 251.92 27.8183C257.072 30.8183 261.041 35.0304 263.829 40.4546C266.617 45.8486 268.011 52.1516 268.011 59.3637C268.011 66.5152 266.617 72.8031 263.829 78.2274C261.041 83.6213 257.072 87.8334 251.92 90.8637C246.799 93.8637 240.708 95.3637 233.648 95.3637ZM233.738 80.3637C236.951 80.3637 239.632 79.4546 241.784 77.6365C243.935 75.788 245.557 73.2728 246.648 70.091C247.769 66.9092 248.329 63.288 248.329 59.2274C248.329 55.1668 247.769 51.5455 246.648 48.3637C245.557 45.1819 243.935 42.6668 241.784 40.8183C239.632 38.9698 236.951 38.0455 233.738 38.0455C230.496 38.0455 227.769 38.9698 225.557 40.8183C223.375 42.6668 221.723 45.1819 220.602 48.3637C219.511 51.5455 218.966 55.1668 218.966 59.2274C218.966 63.288 219.511 66.9092 220.602 70.091C221.723 73.2728 223.375 75.788 225.557 77.6365C227.769 79.4546 230.496 80.3637 233.738 80.3637Z" fill="black"/>
<path d="M306.329 95.1365C301.026 95.1365 296.223 93.7728 291.92 91.0455C287.648 88.288 284.254 84.2425 281.738 78.9092C279.254 73.5455 278.011 66.9698 278.011 59.1819C278.011 51.1819 279.299 44.5304 281.875 39.2274C284.451 33.894 287.875 29.9092 292.148 27.2728C296.451 24.6062 301.163 23.2728 306.284 23.2728C310.193 23.2728 313.451 23.9395 316.057 25.2728C318.693 26.5758 320.814 28.2122 322.42 30.1819C324.057 32.1213 325.299 34.0304 326.148 35.9092H326.738V0.90918H346.057V94.0001H326.966V82.8183H326.148C325.238 84.7577 323.951 86.6819 322.284 88.591C320.648 90.4698 318.511 92.0304 315.875 93.2728C313.269 94.5152 310.087 95.1365 306.329 95.1365ZM312.466 79.7274C315.587 79.7274 318.223 78.8789 320.375 77.1819C322.557 75.4546 324.223 73.0455 325.375 69.9546C326.557 66.8637 327.148 63.2425 327.148 59.091C327.148 54.9395 326.572 51.3334 325.42 48.2728C324.269 45.2122 322.602 42.8486 320.42 41.1819C318.238 39.5152 315.587 38.6819 312.466 38.6819C309.284 38.6819 306.602 39.5455 304.42 41.2728C302.238 43.0001 300.587 45.394 299.466 48.4546C298.345 51.5152 297.784 55.0607 297.784 59.091C297.784 63.1516 298.345 66.7425 299.466 69.8637C300.617 72.9546 302.269 75.3789 304.42 77.1365C306.602 78.8637 309.284 79.7274 312.466 79.7274Z" fill="black"/>
<path d="M381.886 95.3183C377.432 95.3183 373.462 94.5455 369.977 93.0001C366.492 91.4243 363.735 89.1062 361.704 86.0455C359.704 82.9546 358.704 79.1062 358.704 74.5001C358.704 70.6213 359.416 67.3637 360.841 64.7274C362.265 62.091 364.204 59.9698 366.659 58.3637C369.113 56.7577 371.901 55.5455 375.023 54.7274C378.174 53.9092 381.477 53.3334 384.932 53.0001C388.992 52.5758 392.265 52.1819 394.75 51.8183C397.235 51.4243 399.038 50.8486 400.159 50.091C401.28 49.3334 401.841 48.2122 401.841 46.7274V46.4546C401.841 43.5758 400.932 41.3486 399.113 39.7728C397.326 38.1971 394.78 37.4092 391.477 37.4092C387.992 37.4092 385.22 38.1819 383.159 39.7274C381.098 41.2425 379.735 43.1516 379.068 45.4546L361.159 44.0001C362.068 39.7577 363.856 36.091 366.523 33.0001C369.189 29.8789 372.629 27.4849 376.841 25.8183C381.083 24.1213 385.992 23.2728 391.568 23.2728C395.447 23.2728 399.159 23.7274 402.704 24.6365C406.28 25.5455 409.447 26.9546 412.204 28.8637C414.992 30.7728 417.189 33.2274 418.795 36.2274C420.401 39.1971 421.204 42.7577 421.204 46.9092V94.0001H402.841V84.3183H402.295C401.174 86.5001 399.674 88.4243 397.795 90.091C395.916 91.7274 393.659 93.0152 391.023 93.9546C388.386 94.8637 385.341 95.3183 381.886 95.3183ZM387.432 81.9546C390.28 81.9546 392.795 81.394 394.977 80.2728C397.159 79.1213 398.871 77.5759 400.113 75.6365C401.356 73.6971 401.977 71.5001 401.977 69.0455V61.6365C401.371 62.0304 400.538 62.394 399.477 62.7274C398.447 63.0304 397.28 63.3183 395.977 63.591C394.674 63.8334 393.371 64.0607 392.068 64.2728C390.765 64.4546 389.583 64.6213 388.523 64.7728C386.25 65.1062 384.265 65.6365 382.568 66.3637C380.871 67.091 379.553 68.0759 378.613 69.3183C377.674 70.5304 377.204 72.0455 377.204 73.8637C377.204 76.5001 378.159 78.5152 380.068 79.9092C382.007 81.2728 384.462 81.9546 387.432 81.9546Z" fill="black"/>
<path d="M445.682 120.182C443.227 120.182 440.924 119.985 438.773 119.591C436.651 119.227 434.894 118.758 433.5 118.182L437.863 103.727C440.136 104.424 442.182 104.803 444 104.864C445.848 104.924 447.439 104.5 448.773 103.591C450.136 102.682 451.242 101.136 452.091 98.9546L453.227 96.0001L428.182 24.1819H448.545L463 75.4546H463.727L478.318 24.1819H498.818L471.682 101.546C470.379 105.303 468.606 108.576 466.363 111.364C464.151 114.182 461.348 116.349 457.954 117.864C454.56 119.409 450.47 120.182 445.682 120.182Z" fill="black"/>
<path d="M549.67 95.1819C546.67 95.1819 544.095 94.1213 541.943 92.0001C539.822 89.8486 538.761 87.2728 538.761 84.2728C538.761 81.3031 539.822 78.7577 541.943 76.6365C544.095 74.5152 546.67 73.4546 549.67 73.4546C552.579 73.4546 555.125 74.5152 557.307 76.6365C559.488 78.7577 560.579 81.3031 560.579 84.2728C560.579 86.2728 560.064 88.1062 559.034 89.7728C558.034 91.4092 556.716 92.7274 555.079 93.7274C553.443 94.6971 551.64 95.1819 549.67 95.1819Z" fill="black"/>
</svg>
